<?xml version="1.0" encoding="UTF-8" standalone="no"?>
<!-- Created with Inkscape (http://www.inkscape.org/) -->

<svg
   version="1.1"
   id="svg2234"
   width="1000"
   height="1000"
   viewBox="0 0 1000 1000"
   sodipodi:docname="logo fond bleu.svg"
   inkscape:version="1.2.2 (b0a8486541, 2022-12-01)"
   xmlns:inkscape="http://www.inkscape.org/namespaces/inkscape"
   xmlns:sodipodi="http://sodipodi.sourceforge.net/DTD/sodipodi-0.dtd"
   xmlns="http://www.w3.org/2000/svg"
   xmlns:svg="http://www.w3.org/2000/svg">
  <defs
     id="defs2238" />
  <sodipodi:namedview
     id="namedview2236"
     pagecolor="#505050"
     bordercolor="#eeeeee"
     borderopacity="1"
     inkscape:showpageshadow="0"
     inkscape:pageopacity="0"
     inkscape:pagecheckerboard="0"
     inkscape:deskcolor="#505050"
     showgrid="false"
     inkscape:zoom="0.531"
     inkscape:cx="300.37665"
     inkscape:cy="825.80038"
     inkscape:window-width="1371"
     inkscape:window-height="734"
     inkscape:window-x="0"
     inkscape:window-y="0"
     inkscape:window-maximized="1"
     inkscape:current-layer="g2240" />
  <g
     inkscape:groupmode="layer"
     inkscape:label="Image"
     id="g2240">
    <g
       id="g2729"
       transform="matrix(0.99985287,0,0,1.2066413,-0.84581489,-125.50424)">
      <path
         style="fill:#fbfcfc"
         d="m 1.1623017,970.14901 v -34 H 501.1623 h 500 v 34 33.99999 h -500 H 1.1623017 Z m 30.2500003,-110.77903 -13.25,-0.27902 v -0.34386 -0.34385 l 2.048655,-4.63133 2.048655,-4.63132 10.792341,-20.2458 10.792341,-20.24579 9.297088,-18 9.297087,-18 6.213461,-11.5 6.21346,-11.5 8.784414,-17 8.784414,-17 4.235918,-8 4.235914,-8 10.98291,-21 10.98291,-21 7.29787,-14 7.29788,-14 4.19774,-8 4.19773,-8 7.01734,-13.5 7.01734,-13.5 9.27354,-18 9.27354,-18 3.73021,-7 3.7302,-7 8.27031,-16 8.27031,-16 10.98081,-21 10.9808,-21 3.74294,-7 3.74293,-7 14.26198,-28 14.26197,-28 0.71935,-1 0.71934,-1 11.78493,-23 11.78492,-23 5.57839,-10.5 5.57838,-10.5 8.03984,-15.69247 8.03984,-15.69246 20.5,-40.54874 20.5,-40.54873 90.51797,-0.009 90.51798,-0.009 10.29495,20.75 10.29496,20.75 17.55928,34.5 17.55927,34.5 4.99562,9.79884 4.99562,9.79884 -0.36782,0.30262 -0.36783,0.30262 -9,4.04299 -9,4.043 -6.5,2.73591 -6.5,2.73591 -6.75,3.04676 -6.75,3.04676 -0.006,0.57288 -0.006,0.57287 2.25603,5.23293 2.25603,5.23294 1.18638,0.0171 1.18639,0.0171 17.81361,-7.57946 17.81362,-7.57946 4.73166,-1.60555 4.73166,-1.60555 0.35658,0.43501 0.35658,0.43501 9.80359,19 9.80358,19 7.83267,15.14872 7.83267,15.14873 -1.2245,0.93368 -1.22449,0.93367 -3.5,1.28485 -3.5,1.28484 -3,1.26125 -3,1.26126 -7,2.7355 -7,2.73551 -0.3418,0.31113 -0.3418,0.31113 1.29269,3.57486 1.29269,3.57487 h 1.15549 1.15548 l 14.79166,-5.55197 14.79165,-5.55197 0.73724,0.80197 0.73724,0.80197 14.75998,29 14.75999,29 2.29449,4.17756 2.29449,4.17756 -1.18974,0.97261 -1.18975,0.97261 -18.90186,7.55169 -18.90186,7.55169 -1.0201,1.0201 -1.02009,1.02009 1.87904,5.52804 1.87904,5.52805 h 1.65956 1.65956 l 4.88336,-1.9513 4.88335,-1.9513 16.39315,-6.07221 16.39316,-6.07222 0.2473,0.27352 0.2473,0.27351 8.55069,16.5 8.55068,16.5 4.56719,8.5 4.56719,8.5 4.07786,8.33048 4.07785,8.33048 -0.33618,0.30494 -0.33619,0.30493 -13,5.48973 -13,5.48973 -1.77287,0.60225 -1.77286,0.60224 1.55483,3.72125 1.55484,3.72124 0.42422,0.42423 0.42423,0.42422 10.29381,-3.99101 10.2938,-3.99101 4.79642,-1.78543 4.79641,-1.78544 0.88415,0.90359 0.88414,0.90358 8.90604,16.5 8.90605,16.5 8.64519,16.55793 8.64519,16.55794 -10.23179,4.64341 -10.2318,4.64342 -6,2.39449 -6,2.3945 -5.22967,2.40416 -5.22967,2.40415 0.002,2 0.002,2 1.92915,4.25 1.92915,4.25 h 0.67363 0.67364 l 10.8673,-3.99885 10.8673,-3.99884 11.69793,-4.68122 11.69793,-4.68123 0.33349,0.93007 0.33349,0.93007 8.99739,17 8.99738,17 8.433,16.64671 8.433,16.64671 -4.70385,1.99101 -4.70385,1.99102 -10.75,4.25 -10.75,4.24999 v 1.29718 1.29718 l 0.97525,2.5651 0.97525,2.5651 1.27475,-5.5e-4 1.27475,-5.4e-4 13.5,-4.92058 13.5,-4.92057 2.5214,-0.62992 2.52141,-0.62991 6.85937,13.30104 6.85938,13.30103 7.51876,14.5 7.51877,14.5 0.75258,1 0.75259,1 12.16905,24.34549 12.16905,24.34548 -0.35037,0.35038 -0.35037,0.35037 -22.47081,0.11326 -22.47161,0.1136 -64.76328,-0.0591 -64.76327,-0.0591 -4.38585,-9.25 -4.38584,-9.25 -14.73969,-28.5 -14.73968,-28.5 -85.6112,-171.04082 -85.61119,-171.04082 -20.5,-41.70744 -20.5,-41.70743 -0.82639,-0.002 -0.8264,-0.002 -12.50937,25.75 -12.50937,25.75 -10.81705,22 -10.81704,22 -3.4769,7.5 -3.47689,7.5 -14.99179,30.50051 -14.99179,30.5 -18.12851,36.75899 -18.1285,36.75899 v 0.99101 0.99101 h 105.48676 105.48675 l 28.51325,56.99097 28.51324,56.99096 v 1.00605 1.00605 l -163.67629,0.25299 -163.67629,0.25298 -34.57371,68.72697 -34.57371,68.72696 -63.5,0.0995 -63.499998,0.0995 -11,0.17357 -11,0.17357 -13.25,-0.27903 z M 696.97374,706.11005 699.1623,704.0711 v -2.57762 -2.57762 l 2.75,0.62333 2.75,0.62334 3.23228,0.62121 3.23228,0.6212 0.54664,-1.42453 0.54665,-1.42453 -3.58784,-7.76541 -3.58784,-7.76542 -1.69109,0.34319 -1.69108,0.34319 0.10894,1.96879 0.10893,1.96879 0.77288,2.84324 0.77287,2.84325 -3.38181,-0.23861 -3.38181,-0.23861 -1.87781,0.14536 -1.87781,0.14537 0.62096,3.88324 0.62095,3.88325 -1.44515,1.19937 -1.44516,1.19938 -2.01687,-0.64013 -2.01686,-0.64013 -1.02555,-3.69249 -1.02555,-3.69249 -0.006,-1.75 -0.005,-1.75 h -2.43261 -2.43261 l -0.61918,1.95083 -0.61917,1.95084 1.12128,4.16412 1.12128,4.16411 2.38505,2.38505 2.38505,2.38505 h 4.35689 4.3569 z m -90.17229,-158.46307 0.57639,-1.50203 -1.59968,-3.99797 -1.59967,-3.99797 h 0.78047 0.78046 l 3.92288,2 3.92288,2 h 4.47411 4.47411 l 2.31445,-2.17431 2.31445,-2.17432 v -3.59784 -3.59784 l -3.0728,-3.72785 -3.07281,-3.72784 h -1.82021 -1.8202 l -0.5717,1.48983 -0.57171,1.48983 2.46472,2.46472 2.46471,2.46471 v 1.34546 1.34545 l -1.2,1.2 -1.2,1.2 h -2.47541 -2.4754 l -7.15311,-3.53442 -7.15311,-3.53442 -1.67149,0.64141 -1.67148,0.64141 v 1.3101 1.31011 l 2.08137,4.8329 2.08137,4.83291 1.3676,3.25 1.36761,3.25 h 1.58241 1.58241 z m -74.06057,-165.68835 12.42142,-5.19037 v -1.2757 -1.2757 l -1.68521,-3.53392 -1.68521,-3.53393 h -1.93137 -1.93136 l 0.47669,2.49365 0.47669,2.49365 -1.11012,0.79778 -1.11011,0.79777 -4,1.34962 -4,1.34962 -6.25,2.84748 -6.25,2.84749 v 1.31147 1.31147 l 1.2,1.2 1.2,1.2 h 0.87858 0.87858 z m 230.11376,222.44038 -0.4257,-0.75 -2.98487,-5.5 -2.98487,-5.5 -5.03789,-9.5 -5.03789,-9.5 -10.98479,-21 -10.98479,-21 -9.2387,-17.5 -9.23871,-17.5 -3.4265,-6.16661 -3.4265,-6.16661 0.78944,-0.4698 0.78943,-0.46979 118.75,-0.16834 118.75,-0.16834 v 61.05475 61.05474 h -87.44098 -87.44099 z m -140.05799,-270.6853 -1.59567,-2.4353 -11.64373,-22.8147 -11.64373,-22.8147 -1.35742,-2.18705 -1.35741,-2.18704 -13.64311,-26.81296 -13.64311,-26.81295 -3.87508,-7.24637 -3.87509,-7.24636 v -1.00364 -1.00363 h 217.5 217.5 v 62.5 62.5 H 809.77731 624.39232 Z M 1.1623017,54.149011 V 4.1490107 H 501.1623 h 500 V 54.149011 104.14901 h -500 H 1.1623017 Z"
         id="path2733" />
      <path
         style="fill:#074c93"
         d="m 1.1623017,520.14901 v -416 H 501.1623 h 500 v 416 416 h -500 H 1.1623017 Z m 128.9999983,339.0534 63.5,-0.0995 34.57371,-68.72696 34.57371,-68.72694 163.67629,-0.25298 163.67629,-0.25299 v -1.00605 -1.00605 L 561.64906,662.13998 533.13581,605.14901 H 427.64906 322.1623 v -0.99101 -0.99101 l 18.1285,-36.75899 18.12851,-36.75899 14.99179,-30.5 14.99179,-30.5 3.47689,-7.5 3.4769,-7.5 10.81704,-22 10.81705,-22 12.50937,-25.75 12.50937,-25.75 0.8264,0.002 0.82639,0.002 20.5,41.70743 20.5,41.70744 85.61119,171.04082 85.6112,171.04082 14.73968,28.5 14.73969,28.5 4.38584,9.25 4.38585,9.25 64.76327,0.0591 64.76328,0.0591 22.47081,-0.11327 22.47081,-0.11326 0.35037,-0.35037 0.35037,-0.35038 -12.16905,-24.34548 -12.16905,-24.34549 -0.75259,-1 -0.75258,-1 -7.51877,-14.5 -7.51876,-14.5 -6.85938,-13.30103 -6.85937,-13.30104 -2.52141,0.62991 -2.5214,0.62992 -13.5,4.92057 -13.5,4.92058 -1.27475,5.4e-4 -1.27475,9e-5 -0.97525,-2.5651 -0.97525,-2.5651 v -1.29718 -1.29718 l 10.75,-4.24999 10.75,-4.25 4.70385,-1.99102 4.70385,-1.99101 -8.433,-16.64671 -8.433,-16.64671 -8.99738,-17 -8.99739,-17 -0.33349,-0.93007 -0.33349,-0.93007 -11.69793,4.68123 -11.69793,4.68122 -10.8673,3.99884 -10.8673,3.99885 h -0.67364 -0.67363 l -1.92915,-4.25 -1.92915,-4.25 -0.002,-2 -0.002,-2 5.22967,-2.40415 5.22967,-2.40416 6,-2.3945 6,-2.39449 10.2318,-4.64342 10.23179,-4.64341 -8.64519,-16.55794 -8.64519,-16.55793 -8.90605,-16.5 -8.90604,-16.5 -0.88414,-0.90358 -0.88415,-0.90359 -4.79641,1.78544 -4.79642,1.78543 -10.2938,3.99101 -10.29381,3.99101 -0.42423,-0.42422 -0.42422,-0.42423 -1.55484,-3.72124 -1.55483,-3.72125 1.77286,-0.60224 1.77287,-0.60225 13,-5.48973 13,-5.48973 0.33619,-0.30493 0.33618,-0.30494 -4.07785,-8.33048 -4.07786,-8.33048 -4.56719,-8.5 -4.56719,-8.5 -8.55068,-16.5 -8.55069,-16.5 -0.2473,-0.27351 -0.2473,-0.27352 -16.39316,6.07222 -16.39315,6.07221 -4.88335,1.9513 -4.88336,1.9513 h -1.65956 -1.65956 l -1.87904,-5.52805 -1.87904,-5.52804 1.02009,-1.02009 1.0201,-1.0201 18.90186,-7.55169 18.90186,-7.55169 1.18975,-0.97261 1.18974,-0.97261 -2.29449,-4.17756 -2.29449,-4.17756 -14.75999,-29 -14.75998,-29 -0.73724,-0.80197 -0.73724,-0.80197 -14.79165,5.55197 -14.79166,5.55197 h -1.15548 -1.15549 l -1.29269,-3.57487 -1.29269,-3.57486 0.3418,-0.31113 0.3418,-0.31113 7,-2.73551 7,-2.7355 3,-1.26126 3,-1.26125 3.5,-1.28484 3.5,-1.28485 1.22449,-0.93367 1.2245,-0.93368 -7.83267,-15.14873 -7.83267,-15.14872 -9.80358,-19 -9.80359,-19 -0.35658,-0.43501 -0.35658,-0.43501 -4.73166,1.60555 -4.73166,1.60555 -17.81362,7.57946 -17.81361,7.57946 -1.18639,-0.0171 -1.18638,-0.0171 -2.25603,-5.23294 -2.25603,-5.23293 0.006,-0.57287 0.006,-0.57288 6.75,-3.04676 6.75,-3.04676 6.5,-2.73591 6.5,-2.73591 9,-4.043 9,-4.04299 0.36783,-0.30262 0.36782,-0.30262 -4.99562,-9.79884 -4.99482,-9.79877 -17.55927,-34.5 -17.55928,-34.5 -10.29496,-20.75 -10.29495,-20.75 -90.51798,0.009 -90.51797,0.009 -20.5,40.54873 -20.5,40.54874 -8.03984,15.69246 -8.03984,15.69247 -5.57838,10.5 -5.57839,10.5 -11.78492,23 -11.78493,23 -0.71934,1 -0.71935,1 -14.26197,28 -14.26198,28 -3.74293,7 -3.74294,7 -10.9808,21 -10.98081,21 -8.27031,16 -8.27031,16 -3.7302,7 -3.73021,7 -9.27354,18 -9.27354,18 -7.01734,13.5 -7.01734,13.5 -4.19773,8 -4.19774,8 -7.29788,14 -7.29787,14 -10.98291,21 -10.98291,21 -4.235914,8 -4.235918,8 -8.784414,17 -8.784414,17 -6.21346,11.5 -6.213461,11.5 -9.297087,18 -9.297088,18 -10.792341,20.24579 -10.792341,20.2458 -2.048655,4.63132 -2.048655,4.63093 v 0.34385 0.34386 l 13.25,0.27902 13.25,0.27903 11,-0.17357 11,-0.17357 63.499998,-0.0995 z m 553.52404,-153.43845 -2.38505,-2.38505 -1.12128,-4.16411 -1.12128,-4.16412 0.61917,-1.95084 0.61918,-1.95083 h 2.43261 2.43261 l 0.006,1.75 0.006,1.75 1.02555,3.69249 1.02555,3.69249 2.01686,0.64013 2.01687,0.64013 1.44516,-1.19938 1.44515,-1.19937 -0.62095,-3.88325 -0.62096,-3.88324 1.87781,-0.14537 1.87781,-0.14536 3.38181,0.23861 3.38181,0.23861 -0.77287,-2.84325 -0.77288,-2.84324 -0.10893,-1.96879 -0.10894,-1.96879 1.69108,-0.34319 1.69109,-0.34319 3.58784,7.76542 3.58784,7.76541 -0.54665,1.42453 -0.54664,1.42453 -3.23228,-0.6212 -3.23228,-0.62121 -2.75,-0.62334 -2.75,-0.62333 v 2.57762 2.57762 l -2.18856,2.03895 -2.18856,2.03896 h -4.3569 -4.35689 l -2.38505,-2.38505 z m -81.9937,-159.86495 -1.3676,-3.25 -2.08137,-4.83291 -2.08137,-4.8329 v -1.31011 -1.3101 l 1.67148,-0.64141 1.67149,-0.64141 7.15311,3.53442 7.15311,3.53442 h 2.4754 2.47541 l 1.2,-1.2 1.2,-1.2 v -1.34545 -1.34546 l -2.46471,-2.46471 -2.46472,-2.46472 0.57171,-1.48983 0.5717,-1.48983 h 1.8202 1.82021 l 3.07281,3.72784 3.0728,3.72785 v 3.59784 3.59784 l -2.31445,2.17432 -2.31445,2.17431 h -4.47411 -4.47411 l -3.92288,-2 -3.92288,-2 h -0.78046 -0.78047 l 1.59967,3.99797 1.59968,3.99797 -0.57639,1.50203 -0.57638,1.50203 h -1.58241 -1.58241 z m -84.33034,-159.95 -1.2,-1.2 v -1.31147 -1.31147 l 6.25,-2.84749 6.25,-2.84748 4,-1.34962 4,-1.34962 1.11011,-0.79777 1.11012,-0.79778 -0.47669,-2.49365 -0.47669,-2.49365 h 1.93136 1.93137 l 1.68521,3.53393 1.68521,3.53392 v 1.2757 1.2757 l -12.42142,5.19037 -12.42142,5.19038 h -0.87858 -0.87858 z m 420.8,158.14526 v -61.05475 l -118.75,0.16834 -118.75,0.16834 -0.78943,0.46979 -0.78944,0.4698 3.4265,6.16661 3.4265,6.16661 9.23871,17.5 9.2387,17.5 10.98479,21 10.98479,21 5.03789,9.5 5.03789,9.5 2.98487,5.5 2.98487,5.5 0.4257,0.75 0.42569,0.75 h 87.44099 87.44098 z m 57,-270.44526 v -62.5 h -217.5 -217.5 v 1.00363 1.00364 l 3.87509,7.24636 3.87508,7.24637 13.64311,26.81295 13.64311,26.81296 1.35741,2.18704 1.35742,2.18705 11.64373,22.8147 11.64373,22.8147 1.59567,2.4353 1.59567,2.4353 H 809.77731 995.1623 Z"
         id="path2731" />
    </g>
  </g>
</svg>
